<?xml version="1.0" standalone="no"?>
<!DOCTYPE svg PUBLIC "-//W3C//DTD SVG 20010904//EN"
 "http://www.w3.org/TR/2001/REC-SVG-20010904/DTD/svg10.dtd">
<svg version="1.0" xmlns="http://www.w3.org/2000/svg"
 width="300.000000pt" height="139.000000pt" viewBox="0 0 300.000000 139.000000"
 preserveAspectRatio="xMidYMid meet">
<metadata>
Created by potrace 1.10, written by Peter Selinger 2001-2011
</metadata>
<g transform="translate(0.000000,139.000000) scale(0.100000,-0.100000)"
fill="#000000" stroke="none">
<path d="M100 1335 c0 -20 -5 -25 -25 -25 -14 0 -25 -5 -25 -10 0 -6 11 -8 25
-4 23 6 25 3 25 -25 0 -17 5 -31 10 -31 6 0 10 13 10 29 0 26 4 30 33 34 l32
4 -32 1 c-28 2 -33 6 -33 27 0 14 -4 25 -10 25 -5 0 -10 -11 -10 -25z"/>
<path d="M439 1313 c-5 -15 -13 -46 -16 -70 l-6 -43 -85 0 c-74 0 -83 2 -72
15 22 26 5 26 -20 0 l-23 -25 23 -25 c25 -26 42 -26 20 0 -11 13 -3 15 70 15
71 0 81 -2 76 -16 -3 -9 -6 -22 -6 -30 0 -11 -21 -14 -103 -14 l-104 0 -15 70
c-8 39 -12 72 -10 75 3 3 48 5 100 5 94 0 95 0 77 -20 -27 -29 -3 -24 25 5
l24 26 -27 26 c-14 15 -30 23 -34 19 -4 -4 1 -14 11 -22 18 -12 8 -14 -82 -14
-86 0 -104 -3 -109 -16 -7 -20 15 -144 30 -161 6 -9 42 -13 113 -13 71 0 105
4 111 13 4 6 17 55 29 107 20 95 20 95 52 98 43 4 41 22 -3 22 -29 0 -37 -5
-46 -27z"/>
<path d="M201 1066 c-16 -19 -11 -46 12 -60 25 -16 52 4 52 40 0 24 -5 30 -26
32 -14 2 -31 -4 -38 -12z m49 -21 c0 -8 -9 -15 -20 -15 -20 0 -26 11 -13 23
12 13 33 7 33 -8z"/>
<path d="M327 1073 c-14 -14 -6 -53 13 -63 38 -20 70 12 54 54 -6 16 -54 22
-67 9z"/>
</g>
</svg>
